<?xml version="1.0" encoding="utf-8"?>
<!-- Generator: Adobe Illustrator 12.0.1, SVG Export Plug-In . SVG Version: 6.00 Build 51448)  -->
<!DOCTYPE svg PUBLIC "-//W3C//DTD SVG 1.1//EN" "http://www.w3.org/Graphics/SVG/1.1/DTD/svg11.dtd" [
	<!ENTITY ns_svg "http://www.w3.org/2000/svg">
	<!ENTITY ns_xlink "http://www.w3.org/1999/xlink">
	<!ENTITY st0 "display:inline;opacity:0.52;">
	<!ENTITY st1 "fill:none;stroke:#000000;stroke-width:0.1;">
	<!ENTITY st2 "fill:none;stroke:#000000;stroke-width:0.5;">
	<!ENTITY st3 "fill:none;stroke:#000000;">
	<!ENTITY st4 "fill:#BFBFBF;">
	<!ENTITY st5 "fill:none;stroke:#000000;stroke-width:0.125;">
	<!ENTITY st6 "fill:none;stroke:#000000;stroke-width:0.05;">
	<!ENTITY st7 "fill:none;stroke:#000000;stroke-width:0.25;">
	<!ENTITY st8 "fill:none;stroke:#000000;stroke-width:0.25;stroke-dasharray:0.025 0.125;">
	<!ENTITY st9 "fill:none;">
	<!ENTITY st10 "fill:#FFFFFF;stroke:#000000;stroke-width:0.2509;">
	<!ENTITY st11 "fill:none;stroke:#000000;stroke-width:2;">
	<!ENTITY st12 "fill:none;stroke:#000000;stroke-width:0.5;stroke-dasharray:0.05 0.25;">
	<!ENTITY st13 "display:none;">
	<!ENTITY st14 "fill:none;stroke:#000000;stroke-dasharray:0.1 0.5;">
	<!ENTITY st15 "fill:none;stroke:#000000;stroke-width:0.0156;">
	<!ENTITY st16 "fill:none;stroke:#000000;stroke-width:0.0312;">
	<!ENTITY st17 "fill:none;stroke:#000000;stroke-width:0.0625;">
]>
<svg  version="1.1" xmlns="&ns_svg;" xmlns:xlink="&ns_xlink;" width="390" height="390" viewBox="0 0 390 390"
	 style="overflow:visible;enable-background:new 0 0 390 390;" xml:space="preserve">
<g id="Layer_2">
	<circle style="&st10;" cx="194.667" cy="195.089" r="190.666"/>
	<g>
		<path d="M62.563,97.142l0.54,8.885l8.653,2.24l-8.318,3.266l0.542,8.924l-5.677-6.908l-8.278,3.25l4.778-7.508l-5.649-6.875
			l8.612,2.23L62.563,97.142z"/>
		<path d="M82.28,92.997c0.855-0.967,1.264-1.739,1.228-2.315c-0.037-0.577-0.609-1.466-1.717-2.667l-8.533-9.252
			c-0.759-0.823-1.382-1.239-1.871-1.248c-0.488-0.01-1.212,0.388-2.172,1.19l-0.39-0.422l4.486-4.138l15.713,6.523L83.66,64.602
			l4.524-4.173l0.39,0.422c-0.79,0.838-1.192,1.494-1.208,1.968s0.35,1.115,1.095,1.923l9.343,10.131
			c0.766,0.831,1.378,1.25,1.838,1.258s1.146-0.34,2.059-1.045l0.389,0.422l-6.375,5.879l-0.389-0.422
			c0.853-0.924,1.275-1.619,1.266-2.083c-0.009-0.465-0.458-1.179-1.347-2.143L85.81,66.507l6.131,18.36l-0.312,0.287l-17.218-7.147
			l8.379,9.086c1.148,1.246,2.079,1.89,2.792,1.932c0.463,0.025,1.148-0.298,2.056-0.97l0.389,0.422l-5.359,4.943L82.28,92.997z"/>
		<path d="M102.461,75.438l-0.322-0.484c0.617-0.518,0.951-1.1,1.003-1.745s-0.15-2.185-0.607-4.619l-3.043-16.241l0.529-0.351
			l16.145,10.371c1.071,0.686,1.811,1.059,2.219,1.119c0.408,0.06,0.941-0.068,1.601-0.386l0.321,0.484l-6.557,4.354l-0.322-0.484
			c0.709-0.567,1.141-0.972,1.296-1.213c0.154-0.241,0.107-0.55-0.143-0.927c-0.083-0.125-0.272-0.319-0.568-0.581
			c-0.295-0.262-0.635-0.518-1.02-0.769l-2.686-1.801l-6.792,4.511c0.447,2.141,0.729,3.441,0.846,3.899
			c0.117,0.459,0.248,0.797,0.392,1.015c0.289,0.435,0.665,0.618,1.13,0.551c0.285-0.045,0.748-0.244,1.388-0.597l0.322,0.484
			L102.461,75.438z M109.176,61.409l-7.675-5.146l1.755,9.077L109.176,61.409z"/>
		<path d="M119.03,57.417c1.089,1.015,2.133,1.735,3.133,2.163c1.743,0.746,3.432,0.713,5.065-0.098
			c0.884-0.439,1.51-1.099,1.877-1.979c0.367-0.88,0.302-1.821-0.195-2.823c-0.449-0.902-1.165-1.526-2.149-1.87
			c-0.637-0.213-1.849-0.404-3.637-0.573l-3.109-0.296c-0.939-0.097-1.734-0.27-2.385-0.521c-1.217-0.487-2.088-1.259-2.612-2.315
			c-0.695-1.399-0.808-2.796-0.337-4.188c0.47-1.394,1.475-2.472,3.013-3.236c0.634-0.314,1.474-0.537,2.521-0.667
			c1.047-0.131,1.633-0.228,1.76-0.29c0.344-0.171,0.541-0.371,0.591-0.599s0.037-0.51-0.039-0.845l0.562-0.279l3.543,5.604
			l-0.672,0.333c-1.336-1.554-2.679-2.435-4.029-2.642s-2.514-0.068-3.492,0.417c-0.76,0.378-1.312,0.931-1.657,1.659
			c-0.343,0.728-0.318,1.489,0.077,2.284c0.354,0.713,0.875,1.214,1.56,1.504c0.69,0.298,1.632,0.5,2.825,0.605l3.193,0.288
			c1.998,0.178,3.503,0.505,4.519,0.979c1.01,0.489,1.785,1.275,2.323,2.358c0.722,1.454,0.776,2.941,0.163,4.462
			s-1.774,2.704-3.481,3.553c-0.858,0.426-1.836,0.709-2.933,0.848s-1.713,0.242-1.849,0.31c-0.325,0.161-0.495,0.369-0.51,0.623
			c-0.015,0.254,0.015,0.502,0.091,0.745l-0.609,0.303l-3.762-5.495L119.03,57.417z"/>
		<path d="M134.31,50.074c0.972,1.126,1.933,1.956,2.88,2.488c1.652,0.93,3.335,1.08,5.048,0.45c0.927-0.341,1.621-0.93,2.082-1.767
			c0.46-0.837,0.497-1.782,0.109-2.835c-0.349-0.948-0.993-1.648-1.934-2.099c-0.609-0.282-1.793-0.606-3.551-0.972l-3.057-0.636
			c-0.923-0.199-1.694-0.459-2.316-0.779c-1.159-0.617-1.943-1.479-2.351-2.588c-0.54-1.469-0.501-2.871,0.116-4.206
			c0.617-1.334,1.731-2.298,3.343-2.891c0.663-0.244,1.522-0.373,2.576-0.389c1.054-0.015,1.647-0.047,1.78-0.096
			c0.36-0.132,0.577-0.31,0.652-0.531s0.092-0.503,0.052-0.845l0.594-0.219l2.916,5.952l-0.703,0.259
			c-1.16-1.692-2.4-2.715-3.719-3.068c-1.319-0.354-2.49-0.343-3.514,0.034c-0.796,0.292-1.404,0.783-1.824,1.47
			c-0.419,0.688-0.476,1.448-0.169,2.283c0.275,0.75,0.738,1.306,1.389,1.669c0.653,0.374,1.567,0.679,2.741,0.914l3.141,0.638
			c1.965,0.397,3.427,0.888,4.387,1.471c0.953,0.597,1.64,1.464,2.058,2.602c0.562,1.527,0.454,3.014-0.321,4.461
			c-0.775,1.447-2.06,2.501-3.852,3.16c-0.901,0.332-1.905,0.507-3.012,0.526c-1.107,0.02-1.731,0.056-1.874,0.108
			c-0.341,0.126-0.533,0.314-0.576,0.565c-0.042,0.251-0.039,0.501,0.01,0.751l-0.641,0.236l-3.134-5.872L134.31,50.074z"/>
		<path d="M150.257,50.669l-0.129-0.562c0.756-0.266,1.271-0.692,1.544-1.277c0.274-0.586,0.626-2.1,1.057-4.542l2.868-16.27
			l0.615-0.142l11.462,15.4c0.763,1.017,1.326,1.625,1.688,1.824c0.362,0.199,0.909,0.266,1.641,0.2l0.129,0.562l-7.689,1.771
			l-0.129-0.562c0.866-0.282,1.414-0.508,1.644-0.68c0.23-0.171,0.294-0.477,0.193-0.917c-0.034-0.146-0.143-0.394-0.327-0.743
			s-0.412-0.708-0.683-1.078l-1.877-2.626l-7.944,1.829c-0.338,2.158-0.533,3.473-0.585,3.942s-0.049,0.832,0.009,1.086
			c0.117,0.509,0.404,0.812,0.862,0.913c0.282,0.059,0.784,0.036,1.504-0.068l0.129,0.562L150.257,50.669z M161.476,39.926
			l-5.382-7.529l-1.547,9.125L161.476,39.926z"/>
		<path d="M183.766,24.321c1.207,0.226,1.88,0.333,2.021,0.32c0.292-0.026,0.561-0.131,0.808-0.315s0.405-0.452,0.476-0.803
			l0.641-0.058l0.904,6.912l-0.711,0.064c-0.536-1.341-1.173-2.404-1.911-3.19c-1.408-1.476-3.182-2.117-5.321-1.925
			c-2.159,0.194-3.848,1.207-5.065,3.04c-1.217,1.833-1.691,4.247-1.422,7.243c0.247,2.755,1.166,4.89,2.755,6.405
			c1.589,1.515,3.488,2.172,5.698,1.974c1.597-0.144,3.034-0.657,4.312-1.543c0.734-0.501,1.524-1.231,2.37-2.189l0.623,0.522
			c-0.605,0.927-1.386,1.763-2.342,2.508c-1.629,1.263-3.454,1.984-5.473,2.166c-3.316,0.298-6.044-0.526-8.184-2.473
			c-1.975-1.799-3.094-4.167-3.357-7.104c-0.271-3.006,0.453-5.615,2.171-7.827c1.809-2.322,4.317-3.627,7.525-3.915
			C181.398,24.032,182.56,24.095,183.766,24.321z"/>
		<path d="M190.921,43.517c1.214-0.075,1.979-0.264,2.295-0.566c0.316-0.302,0.504-1.119,0.565-2.451l0.605-13.406
			c0.05-1.108-0.086-1.837-0.409-2.185s-1.05-0.588-2.185-0.72l0.026-0.578l8.578,0.387l-0.026,0.578
			c-1.135,0.03-1.881,0.203-2.236,0.52c-0.355,0.317-0.559,1.03-0.607,2.139l-0.272,6.031l9.406,0.425l0.272-6.031
			c0.049-1.108-0.084-1.837-0.401-2.185s-1.048-0.587-2.192-0.72l0.026-0.578l8.578,0.387l-0.026,0.578
			c-1.142,0.029-1.889,0.203-2.24,0.52c-0.354,0.317-0.555,1.03-0.604,2.139l-0.622,13.766c-0.051,1.122,0.086,1.849,0.409,2.18
			c0.322,0.331,1.051,0.572,2.185,0.724l-0.026,0.578l-8.578-0.387l0.026-0.578c1.224-0.065,1.991-0.251,2.303-0.559
			s0.497-1.127,0.558-2.459l0.271-6.016l-9.406-0.425L196.905,41c-0.051,1.123,0.087,1.852,0.413,2.188
			c0.326,0.336,1.053,0.575,2.181,0.716l-0.026,0.578l-8.578-0.387L190.921,43.517z"/>
		<path d="M224.719,26.528l-0.106,0.562c-1.185-0.142-1.98-0.09-2.387,0.156c-0.406,0.247-0.716,0.93-0.927,2.049l-1.842,9.737
			c-0.303,1.596-0.319,2.881-0.053,3.854c0.506,1.779,1.893,2.884,4.162,3.312c2.487,0.471,4.314-0.045,5.481-1.547
			c0.652-0.841,1.161-2.231,1.528-4.173l1.498-7.916c0.313-1.66,0.312-2.739-0.005-3.236c-0.317-0.498-1.021-0.907-2.113-1.227
			l0.106-0.562l7.062,1.336l-0.106,0.562c-1.206-0.094-2.032,0.046-2.478,0.419c-0.446,0.374-0.82,1.361-1.123,2.961l-1.498,7.921
			c-0.398,2.101-1.03,3.679-1.897,4.736c-1.601,1.944-4.066,2.602-7.397,1.971c-3.292-0.623-5.33-2.117-6.115-4.483
			c-0.427-1.272-0.462-2.85-0.105-4.734l1.801-9.518c0.209-1.109,0.173-1.853-0.109-2.229c-0.283-0.377-0.991-0.719-2.124-1.025
			l0.106-0.562L224.719,26.528z"/>
		<path d="M236.718,43.752c0.069,1.488,0.312,2.734,0.729,3.74c0.725,1.753,1.954,2.911,3.69,3.472
			c0.939,0.304,1.848,0.27,2.727-0.104c0.878-0.374,1.489-1.093,1.834-2.159c0.311-0.96,0.235-1.907-0.227-2.842
			c-0.306-0.598-1.037-1.582-2.195-2.954l-2.012-2.385c-0.604-0.726-1.05-1.406-1.341-2.042c-0.53-1.201-0.612-2.364-0.249-3.488
			c0.482-1.489,1.378-2.569,2.688-3.239c1.31-0.669,2.781-0.74,4.414-0.212c0.672,0.218,1.428,0.645,2.268,1.282
			c0.839,0.637,1.325,0.977,1.46,1.021c0.364,0.118,0.645,0.113,0.84-0.015c0.195-0.127,0.383-0.337,0.562-0.628l0.609,0.197
			l-1.392,6.489l-0.703-0.228c0.13-2.045-0.215-3.613-1.036-4.706c-0.82-1.092-1.75-1.806-2.789-2.142
			c-0.809-0.262-1.59-0.252-2.345,0.029s-1.27,0.843-1.543,1.688c-0.245,0.759-0.225,1.481,0.062,2.168
			c0.284,0.697,0.815,1.5,1.594,2.409l2.077,2.438c1.302,1.524,2.148,2.812,2.54,3.861c0.38,1.056,0.383,2.16,0.01,3.312
			c-0.5,1.545-1.501,2.648-3.003,3.308c-1.501,0.66-3.158,0.696-4.973,0.109c-0.912-0.295-1.809-0.777-2.689-1.444
			c-0.882-0.668-1.395-1.025-1.538-1.072c-0.346-0.111-0.612-0.082-0.801,0.091c-0.188,0.172-0.341,0.372-0.456,0.599l-0.641-0.207
			l1.157-6.564L236.718,43.752z"/>
		<path d="M249.001,53.594c1.089,0.364,1.848,0.486,2.274,0.367s0.881-0.708,1.363-1.766l5.716-12.547
			c0.455-1,0.601-1.723,0.438-2.168s-0.753-0.944-1.769-1.495l0.242-0.531l14.984,6.826l-1.75,4.09l-0.719-0.327
			c0.329-1.355,0.339-2.324,0.028-2.908c-0.31-0.584-1.29-1.252-2.941-2.004l-3.839-1.749c-0.414-0.188-0.7-0.238-0.857-0.149
			c-0.157,0.089-0.32,0.317-0.487,0.685l-2.87,6.299l4.344,1.979c1.207,0.55,2.058,0.722,2.552,0.517s1.091-0.807,1.79-1.803
			l0.656,0.299l-2.969,6.516l-0.656-0.299c0.286-1.19,0.345-2.039,0.174-2.544c-0.17-0.505-0.854-1.03-2.052-1.576l-4.344-1.979
			l-3.181,6.981c-0.256,0.561-0.229,0.972,0.079,1.234s1.345,0.795,3.11,1.6c1.912,0.871,3.418,1.306,4.519,1.304
			c1.101-0.002,2.379-0.64,3.835-1.913l0.789,0.359l-3.458,4.179l-15.244-6.945L249.001,53.594z"/>
		<path d="M276.039,44.195l14.984,9.128l-2.601,4.586l-0.641-0.391c0.554-1.604,0.722-2.766,0.505-3.483
			c-0.216-0.718-1.089-1.542-2.617-2.474l-1.484-0.904l-8.253,13.547c-0.624,1.025-0.852,1.758-0.682,2.198s0.771,1.028,1.804,1.763
			l-0.295,0.484l-7.734-4.711l0.295-0.484c1.177,0.598,1.989,0.839,2.439,0.724c0.45-0.116,1.024-0.748,1.723-1.895l8.062-13.234
			l-1.5-0.914c-1.465-0.892-2.592-1.288-3.379-1.188s-1.749,0.781-2.884,2.043l-0.641-0.39L276.039,44.195z"/>
		<path d="M293.396,54.934l13.766,10.818l-3.129,4.238l-0.578-0.454c0.734-1.524,1.035-2.655,0.902-3.394s-0.907-1.665-2.322-2.776
			l-1.344-1.056l-9.811,12.484c-0.737,0.938-1.047,1.635-0.93,2.091c0.118,0.456,0.646,1.11,1.586,1.962l-0.356,0.453l-7.109-5.587
			l0.356-0.453c1.095,0.733,1.871,1.07,2.33,1.01c0.458-0.06,1.099-0.614,1.922-1.661l9.59-12.203l-1.359-1.068
			c-1.35-1.061-2.422-1.589-3.215-1.584c-0.793,0.004-1.827,0.563-3.1,1.677l-0.594-0.467L293.396,54.934z"/>
		<path d="M300.209,78.798c-0.609,1.362-0.955,2.585-1.036,3.671c-0.144,1.893,0.434,3.479,1.729,4.76
			c0.702,0.693,1.529,1.069,2.482,1.129s1.824-0.31,2.613-1.108c0.71-0.72,1.07-1.602,1.079-2.644
			c-0.003-0.671-0.213-1.88-0.628-3.626l-0.722-3.037c-0.212-0.919-0.305-1.729-0.278-2.427c0.066-1.312,0.515-2.389,1.346-3.23
			c1.101-1.114,2.386-1.678,3.855-1.688c1.471-0.012,2.815,0.585,4.034,1.789c0.502,0.495,0.984,1.216,1.446,2.161
			c0.463,0.945,0.744,1.467,0.844,1.566c0.273,0.27,0.525,0.391,0.756,0.364c0.232-0.026,0.493-0.129,0.784-0.31l0.453,0.448
			l-4.159,5.181l-0.531-0.524c1.041-1.772,1.443-3.331,1.205-4.676c-0.238-1.344-0.745-2.399-1.52-3.164
			c-0.604-0.596-1.305-0.937-2.104-1.022c-0.8-0.087-1.513,0.187-2.138,0.82c-0.562,0.569-0.869,1.225-0.923,1.968
			c-0.061,0.75,0.052,1.707,0.336,2.869l0.755,3.112c0.475,1.946,0.65,3.478,0.53,4.594c-0.135,1.116-0.628,2.105-1.48,2.968
			c-1.143,1.157-2.533,1.694-4.17,1.611c-1.638-0.084-3.134-0.794-4.487-2.132c-0.682-0.672-1.266-1.503-1.752-2.493
			c-0.488-0.991-0.785-1.539-0.893-1.645c-0.258-0.255-0.51-0.348-0.755-0.278s-0.471,0.18-0.677,0.33l-0.484-0.478l3.988-5.351
			L300.209,78.798z"/>
		<path d="M339.322,116.818l-8.285-3.256l-5.679,6.902l0.546-8.92l-8.321-3.27l8.657-2.236l0.543-8.877l4.795,7.498l8.615-2.225
			l-5.652,6.87L339.322,116.818z"/>
	</g>
	<g>
		<path d="M30.857,248.173c0.507,1.161,0.958,1.87,1.352,2.127s1.155,0.186,2.28-0.213l13-4.605
			c1.075-0.381,1.704-0.802,1.889-1.264c0.184-0.462,0.094-1.299-0.271-2.51l0.547-0.193l3.067,8.656l-0.547,0.193
			c-0.479-1.171-0.936-1.878-1.37-2.121c-0.434-0.242-1.188-0.174-2.263,0.207l-13,4.605c-1.125,0.398-1.761,0.822-1.905,1.271
			c-0.145,0.448-0.049,1.282,0.288,2.503l-0.547,0.194l-3.067-8.656L30.857,248.173z"/>
		<path d="M34.163,258.256c0.665,1.108,1.277,1.731,1.839,1.87c0.561,0.14,1.582-0.139,3.062-0.833l12.379-5.806l0.272-0.597
			c0.291-0.64,0.426-1.13,0.405-1.472c-0.021-0.343-0.158-0.807-0.41-1.393l0.516-0.241l2.26,4.818l-8.341,17.095l9.316-4.369
			c1.532-0.719,2.423-1.415,2.671-2.089c0.157-0.442,0.039-1.2-0.354-2.276l0.516-0.241l3.093,6.594l-0.516,0.241
			c-0.611-1.017-1.206-1.607-1.784-1.771c-0.579-0.163-1.604,0.101-3.076,0.791l-14.783,6.933l-0.226-0.479l9.578-19.632
			l-10.937,5.129c-1.535,0.72-2.431,1.412-2.688,2.077c-0.164,0.433-0.064,1.181,0.301,2.244l-0.516,0.242l-3.093-6.594
			L34.163,258.256z"/>
		<path d="M49.722,277.208c-0.904,1.179-1.52,2.285-1.849,3.32c-0.574,1.804-0.38,3.48,0.583,5.028
			c0.521,0.839,1.237,1.398,2.149,1.68s1.843,0.127,2.794-0.465c0.856-0.532,1.41-1.305,1.66-2.316
			c0.152-0.653,0.229-1.878,0.23-3.673l0.002-3.121c0.007-0.944,0.105-1.752,0.293-2.425c0.369-1.258,1.055-2.198,2.057-2.821
			c1.328-0.825,2.707-1.071,4.137-0.737s2.599,1.229,3.504,2.686c0.373,0.6,0.673,1.414,0.901,2.442
			c0.228,1.028,0.378,1.603,0.453,1.723c0.202,0.325,0.419,0.502,0.651,0.53c0.232,0.027,0.512-0.013,0.838-0.12l0.34,0.547
			l-5.25,4.064l-0.389-0.625c1.425-1.481,2.177-2.904,2.256-4.271c0.08-1.365-0.169-2.513-0.746-3.44
			c-0.448-0.722-1.052-1.219-1.81-1.492c-0.758-0.273-1.515-0.176-2.269,0.293c-0.677,0.421-1.127,0.986-1.351,1.696
			c-0.233,0.716-0.345,1.672-0.337,2.869l0.014,3.204c0.01,2.004-0.173,3.535-0.55,4.593c-0.391,1.055-1.101,1.901-2.13,2.541
			c-1.381,0.858-2.858,1.055-4.432,0.589s-2.865-1.509-3.872-3.129c-0.507-0.814-0.882-1.762-1.126-2.84
			c-0.245-1.078-0.407-1.682-0.486-1.811c-0.192-0.309-0.416-0.458-0.672-0.447s-0.502,0.065-0.739,0.165l-0.359-0.578l5.124-4.269
			L49.722,277.208z"/>
		<path d="M69.256,281.702l10.796,13.812l-4.059,3.374l-0.452-0.578c1.082-1.307,1.647-2.335,1.697-3.084
			c0.049-0.749-0.479-1.831-1.585-3.246l-1.062-1.359l-12.516,9.782c-0.938,0.733-1.404,1.335-1.399,1.805
			c0.006,0.471,0.361,1.23,1.068,2.28l-0.453,0.354l-5.569-7.125l0.453-0.354c0.887,0.972,1.56,1.481,2.021,1.532
			c0.46,0.049,1.217-0.338,2.271-1.161l12.219-9.551l-1.075-1.375c-1.055-1.35-1.968-2.116-2.74-2.3s-1.911,0.115-3.417,0.896
			l-0.464-0.594L69.256,281.702z"/>
		<path d="M65.584,308.996c0.926,0.861,1.621,1.331,2.084,1.41c0.463,0.078,1.13-0.288,2.001-1.101l10.094-9.41
			c0.832-0.775,1.24-1.411,1.225-1.907s-0.431-1.226-1.247-2.189l0.422-0.394l6.249,6.703l-0.422,0.394
			c-0.904-0.882-1.603-1.348-2.097-1.397c-0.494-0.051-1.157,0.312-1.988,1.088l-10.094,9.41c-0.871,0.812-1.284,1.452-1.237,1.92
			c0.046,0.467,0.466,1.193,1.26,2.177l-0.422,0.394l-6.249-6.703L65.584,308.996z"/>
		<path d="M86.251,302.213l13.016,11.733l-3.396,4.019l-0.547-0.493c0.836-1.471,1.214-2.579,1.131-3.325
			c-0.082-0.745-0.791-1.72-2.125-2.924l-1.281-1.155l-10.62,11.781c-0.804,0.892-1.163,1.568-1.079,2.031s0.564,1.15,1.439,2.062
			l-0.38,0.422l-6.719-6.057l0.38-0.422c1.044,0.806,1.798,1.194,2.261,1.165c0.463-0.03,1.143-0.543,2.039-1.537l10.38-11.516
			l-1.297-1.169c-1.273-1.147-2.306-1.746-3.097-1.794c-0.792-0.049-1.86,0.439-3.206,1.466l-0.562-0.507L86.251,302.213z"/>
		<path d="M105.771,318.621l-0.329,0.469c-1.021-0.617-1.767-0.897-2.238-0.84s-1.035,0.554-1.69,1.487l-5.69,8.111
			c-0.933,1.329-1.478,2.492-1.635,3.49c-0.272,1.83,0.537,3.408,2.43,4.735c2.074,1.455,3.952,1.739,5.636,0.852
			c0.94-0.497,1.979-1.555,3.113-3.172l4.628-6.597c0.97-1.383,1.414-2.365,1.331-2.949c-0.083-0.583-0.554-1.244-1.415-1.983
			l0.329-0.469l5.859,4.111l-0.329,0.469c-1.057-0.581-1.865-0.793-2.424-0.636s-1.307,0.902-2.242,2.234l-4.629,6.599
			c-1.228,1.749-2.454,2.927-3.68,3.532c-2.259,1.111-4.776,0.694-7.551-1.252c-2.742-1.924-3.983-4.125-3.723-6.604
			c0.135-1.334,0.753-2.785,1.854-4.354l5.561-7.926c0.649-0.926,0.923-1.619,0.82-2.08c-0.104-0.46-0.608-1.064-1.517-1.812
			l0.329-0.469L105.771,318.621z"/>
		<path d="M115.422,325.304l15.469,8.24l-2.34,4.731l-0.656-0.35c0.458-1.632,0.557-2.801,0.297-3.505
			c-0.26-0.705-1.183-1.479-2.769-2.324l-1.516-0.809l-7.458,14c-0.564,1.059-0.749,1.803-0.555,2.232
			c0.194,0.429,0.826,0.979,1.896,1.652l-0.266,0.5l-7.969-4.246l0.266-0.5c1.206,0.529,2.029,0.723,2.471,0.582
			s0.977-0.801,1.605-1.98l7.292-13.688l-1.531-0.816c-1.514-0.807-2.661-1.137-3.441-0.992s-1.7,0.879-2.759,2.202l-0.672-0.358
			L115.422,325.304z"/>
		<path d="M122.935,351.835c1.104,0.307,1.865,0.389,2.285,0.247c0.419-0.143,0.844-0.756,1.272-1.84l5.072-12.828
			c0.405-1.024,0.516-1.755,0.33-2.192c-0.185-0.438-0.797-0.904-1.835-1.402l0.21-0.531l15.312,6.055l-1.538,4.162l-0.734-0.29
			c0.26-1.369,0.219-2.337-0.12-2.903c-0.339-0.567-1.353-1.185-3.04-1.852l-3.927-1.553c-0.424-0.168-0.712-0.203-0.865-0.106
			c-0.153,0.098-0.303,0.333-0.452,0.709l-2.544,6.435l4.453,1.761c1.23,0.487,2.088,0.615,2.57,0.384
			c0.483-0.231,1.048-0.863,1.695-1.895l0.672,0.266l-2.639,6.672l-0.672-0.266c0.227-1.205,0.242-2.056,0.047-2.552
			s-0.903-0.985-2.125-1.469l-4.453-1.761l-2.825,7.143c-0.227,0.573-0.179,0.982,0.142,1.229s1.384,0.727,3.19,1.44
			c1.956,0.773,3.484,1.131,4.584,1.071c1.1-0.06,2.345-0.765,3.735-2.117l0.806,0.318l-3.243,4.355l-15.576-6.159L122.935,351.835z
			"/>
		<path d="M155.99,344.847c2.24-1.397,4.723-1.812,7.45-1.244c2.737,0.57,4.852,1.947,6.346,4.133
			c1.621,2.367,2.093,5.169,1.419,8.406c-0.685,3.287-2.277,5.686-4.777,7.193c-2.239,1.347-4.688,1.742-7.346,1.189
			c-2.846-0.594-5.007-2.047-6.483-4.363c-1.498-2.361-1.926-5.082-1.284-8.162C151.988,348.761,153.547,346.377,155.99,344.847z
			 M155.163,360.179c0.939,1.787,2.323,2.872,4.154,3.253c1.791,0.373,3.477-0.051,5.058-1.271c1.581-1.222,2.712-3.466,3.393-6.734
			c0.688-3.308,0.543-5.83-0.437-7.569c-0.98-1.739-2.351-2.792-4.111-3.159c-1.821-0.379-3.521,0.062-5.1,1.325
			s-2.702,3.494-3.368,6.692C154.087,355.904,154.225,358.392,155.163,360.179z"/>
		<path d="M171.137,365.78c1.23-0.022,2.007-0.178,2.332-0.465c0.325-0.288,0.546-1.096,0.662-2.421l1.178-13.375
			c0.096-1.093-0.008-1.821-0.311-2.186s-1.024-0.638-2.165-0.819l0.051-0.578l16.453,1.448l-0.278,4.416l-0.859-0.076
			c-0.087-1.426-0.405-2.352-0.955-2.777s-1.684-0.714-3.401-0.865l-4.235-0.373c-0.414-0.036-0.685,0.011-0.813,0.142
			s-0.211,0.402-0.247,0.814l-0.607,6.896l4.484,0.395c1.316,0.116,2.172-0.005,2.568-0.363c0.396-0.357,0.757-1.121,1.082-2.291
			l0.719,0.062l-0.627,7.125l-0.719-0.062c-0.126-1.216-0.353-2.033-0.68-2.451c-0.328-0.419-1.145-0.686-2.451-0.801l-4.484-0.395
			l-0.594,6.75c-0.1,1.126,0.011,1.861,0.331,2.206s1.061,0.613,2.222,0.806l-0.051,0.578l-8.656-0.762L171.137,365.78z"/>
		<path d="M195.438,347.499l17.484-1.087l0.498,5.239l-0.734,0.045c-0.467-1.627-0.995-2.672-1.586-3.135
			c-0.592-0.463-1.786-0.639-3.583-0.527l-1.719,0.107l0.984,15.828c0.074,1.192,0.306,1.92,0.695,2.183s1.216,0.399,2.478,0.411
			l0.036,0.578l-9.016,0.561l-0.036-0.578c1.307-0.182,2.11-0.447,2.413-0.798c0.302-0.351,0.412-1.192,0.329-2.524l-0.962-15.469
			l-1.734,0.107c-1.716,0.106-2.869,0.426-3.46,0.957c-0.59,0.532-0.99,1.638-1.199,3.316l-0.75,0.047L195.438,347.499z"/>
		<path d="M215.721,366.153c1.104-0.316,1.797-0.646,2.081-0.986c0.284-0.342,0.324-1.087,0.122-2.236l-2.39-13.578
			c-0.19-1.086-0.48-1.768-0.867-2.043c-0.388-0.276-1.155-0.354-2.304-0.234l-0.1-0.562l16.219-2.854l0.877,4.341l-0.781,0.137
			c-0.494-1.299-1.034-2.102-1.619-2.406s-1.77-0.299-3.555,0.015l-4.166,0.733c-0.45,0.079-0.715,0.2-0.795,0.363
			c-0.079,0.163-0.084,0.443-0.014,0.842l1.202,6.828l4.719-0.83c1.298-0.229,2.091-0.566,2.38-1.016
			c0.289-0.448,0.438-1.28,0.449-2.495l0.719-0.126l1.24,7.047l-0.719,0.126c-0.436-1.143-0.866-1.874-1.29-2.193
			s-1.28-0.366-2.567-0.14l-4.719,0.83l1.33,7.56c0.106,0.606,0.361,0.931,0.764,0.973s1.56-0.105,3.471-0.442
			c2.07-0.364,3.559-0.859,4.465-1.485s1.6-1.879,2.081-3.758l0.849-0.149l-0.477,5.399l-16.507,2.905L215.721,366.153z"/>
		<path d="M243.004,339.634c1.226-0.021,1.906-0.052,2.042-0.093c0.28-0.084,0.522-0.241,0.727-0.472
			c0.205-0.229,0.306-0.523,0.304-0.881l0.625-0.188l2.289,6.587l-0.68,0.205c-0.795-1.206-1.634-2.119-2.516-2.74
			c-1.678-1.162-3.546-1.434-5.604-0.814c-2.078,0.625-3.529,1.957-4.354,3.998c-0.825,2.041-0.804,4.502,0.063,7.383
			c0.797,2.648,2.126,4.555,3.988,5.719s3.856,1.426,5.982,0.786c1.536-0.462,2.842-1.255,3.915-2.38
			c0.619-0.64,1.247-1.514,1.883-2.622l0.714,0.386c-0.406,1.028-1.004,2.003-1.791,2.924c-1.343,1.562-2.985,2.636-4.928,3.22
			c-3.189,0.96-6.027,0.702-8.516-0.773c-2.297-1.364-3.87-3.457-4.719-6.279c-0.869-2.89-0.687-5.591,0.549-8.102
			c1.303-2.637,3.495-4.419,6.577-5.347C240.628,339.827,241.777,339.655,243.004,339.634z"/>
		<path d="M255.096,356.622c1.051-0.613,1.649-1.126,1.796-1.539c0.147-0.412-0.053-1.229-0.598-2.447l-5.486-12.266
			c-0.451-1.01-0.898-1.596-1.343-1.761c-0.443-0.165-1.201-0.052-2.273,0.341l-0.238-0.531l7.844-3.509l0.238,0.531
			c-1.002,0.536-1.59,1.024-1.766,1.467c-0.176,0.441-0.038,1.167,0.413,2.176l2.467,5.516l8.594-3.845l-2.467-5.516
			c-0.451-1.008-0.896-1.596-1.336-1.763c-0.438-0.167-1.199-0.053-2.28,0.343l-0.238-0.531l7.844-3.508l0.238,0.531
			c-1.008,0.538-1.598,1.027-1.771,1.469c-0.173,0.44-0.033,1.165,0.418,2.174l5.64,12.609c0.457,1.021,0.904,1.607,1.341,1.756
			c0.437,0.15,1.195,0.038,2.276-0.336l0.237,0.531l-7.844,3.508l-0.237-0.531c1.063-0.607,1.666-1.119,1.807-1.534
			c0.14-0.415-0.063-1.231-0.608-2.452l-2.46-5.5l-8.594,3.845l2.613,5.844c0.457,1.021,0.906,1.608,1.348,1.762
			c0.442,0.152,1.198,0.038,2.27-0.342l0.237,0.531l-7.844,3.509L255.096,356.622z"/>
		<path d="M275.758,347.311c1.021-0.785,1.568-1.464,1.643-2.037c0.072-0.572-0.32-1.555-1.18-2.945l-7.184-11.63l-0.623-0.201
			c-0.667-0.217-1.169-0.295-1.506-0.235s-0.781,0.248-1.332,0.564l-0.3-0.484l4.523-2.794l17.949,6.325l-5.409-8.757
			c-0.89-1.44-1.684-2.245-2.383-2.414c-0.458-0.105-1.199,0.1-2.225,0.615l-0.3-0.484l6.203-3.832l0.3,0.484
			c-0.943,0.725-1.463,1.385-1.559,1.979c-0.098,0.594,0.281,1.582,1.137,2.965l8.581,13.893l-0.45,0.277l-20.617-7.265l6.35,10.279
			c0.891,1.442,1.682,2.253,2.372,2.432c0.449,0.114,1.182-0.071,2.196-0.556l0.3,0.484l-6.188,3.821L275.758,347.311z"/>
		<path d="M286.816,319.268c0.321-2.622,1.561-4.814,3.718-6.578c2.165-1.771,4.567-2.548,7.207-2.333
			c2.86,0.229,5.339,1.626,7.435,4.189c2.127,2.602,2.991,5.35,2.592,8.244c-0.36,2.589-1.592,4.743-3.694,6.462
			c-2.251,1.841-4.742,2.605-7.473,2.296c-2.78-0.322-5.167-1.702-7.159-4.141C287.346,324.845,286.471,322.131,286.816,319.268z
			 M298.222,329.558c1.979,0.394,3.693-0.002,5.142-1.186c1.417-1.158,2.148-2.736,2.193-4.732c0.046-1.998-0.988-4.288-3.1-6.872
			c-2.139-2.614-4.191-4.088-6.16-4.419c-1.968-0.332-3.648,0.072-5.042,1.211c-1.44,1.178-2.166,2.777-2.179,4.799
			c-0.012,2.021,1.016,4.297,3.084,6.826C294.221,327.706,296.241,329.164,298.222,329.558z"/>
		<path d="M312.655,320.683c0.702-0.906,1.068-1.58,1.097-2.021c0.028-0.44-0.375-1.062-1.211-1.862l-9.969-9.547
			c-0.79-0.757-1.422-1.131-1.895-1.122c-0.474,0.008-1.137,0.399-1.991,1.176l-0.422-0.404l6.061-6.328l0.422,0.404
			c-0.745,0.865-1.14,1.547-1.183,2.044s0.309,1.103,1.052,1.814l10.749,10.295c0.248,0.237,0.482,0.382,0.705,0.434
			c0.223,0.053,0.488-0.046,0.797-0.296c0.183-0.146,0.366-0.31,0.552-0.488c0.185-0.179,0.522-0.523,1.011-1.034
			c1.906-1.99,3.031-3.492,3.374-4.505c0.343-1.014,0.155-2.492-0.562-4.438l0.545-0.568l2.828,4.805l-11.538,12.047
			L312.655,320.683z"/>
		<path d="M314.171,293.231c-0.319-2.619,0.355-5.044,2.022-7.274c1.674-2.238,3.816-3.571,6.428-4
			c2.83-0.468,5.567,0.289,8.216,2.27c2.688,2.01,4.187,4.466,4.495,7.368c0.273,2.598-0.403,4.984-2.029,7.157
			c-1.74,2.327-3.971,3.67-6.693,4.028c-2.772,0.357-5.418-0.404-7.937-2.288C316.025,298.512,314.524,296.092,314.171,293.231z
			 M327.714,300.466c2.017-0.094,3.584-0.889,4.703-2.386c1.095-1.464,1.423-3.17,0.984-5.119c-0.438-1.948-1.994-3.923-4.668-5.922
			c-2.706-2.024-5.054-2.96-7.044-2.809s-3.523,0.946-4.601,2.387c-1.112,1.488-1.431,3.215-0.954,5.179
			c0.477,1.965,2.023,3.926,4.641,5.884C323.385,299.631,325.698,300.56,327.714,300.466z"/>
		<path d="M329.556,265.968c0.858-0.85,1.329-1.35,1.413-1.5c0.217-0.388,0.296-0.705,0.236-0.952
			c-0.059-0.247-0.197-0.507-0.416-0.78l0.332-0.594l5.81,2.963l-0.35,0.625c-1.623-0.18-2.921-0.153-3.895,0.077
			c-1.724,0.436-3.063,1.508-4.02,3.218c-0.971,1.735-1.167,3.631-0.587,5.684c0.58,2.055,2.381,3.926,5.402,5.615
			c2.492,1.395,4.807,1.826,6.941,1.295c2.135-0.53,3.742-1.762,4.822-3.692c0.183-0.326,0.367-0.728,0.552-1.202
			c0.186-0.476,0.323-0.948,0.413-1.419c0.15-0.761,0.192-1.265,0.128-1.509c-0.065-0.244-0.246-0.45-0.544-0.617l-4.302-2.405
			c-1.048-0.586-1.783-0.804-2.206-0.653c-0.422,0.151-0.941,0.706-1.56,1.665l-0.5-0.279l3.854-6.891l0.5,0.279
			c-0.331,0.694-0.47,1.202-0.416,1.521c0.075,0.528,0.554,1.039,1.437,1.532l5.316,2.974c0.316,0.177,0.303,1.19-0.039,3.042
			s-0.914,3.495-1.718,4.933c-1.479,2.645-3.497,4.443-6.054,5.398c-2.817,1.051-5.657,0.775-8.519-0.824
			c-2.519-1.408-4.229-3.412-5.134-6.012c-1-2.861-0.688-5.742,0.933-8.642C327.975,267.768,328.697,266.818,329.556,265.968z"/>
		<path d="M335.519,252.771l0.531,0.21c-0.286,0.668-0.436,1.195-0.447,1.581c-0.011,0.387,0.185,0.659,0.589,0.818
			c0.121,0.049,0.285,0.081,0.49,0.098c0.206,0.016,0.498-0.015,0.876-0.093l7.901-1.773l-4.686-6.638
			c-0.205-0.276-0.387-0.477-0.545-0.598c-0.158-0.123-0.279-0.2-0.364-0.234c-0.413-0.163-0.772-0.051-1.078,0.338
			c-0.188,0.229-0.413,0.661-0.676,1.295l-0.531-0.21l2.493-6.298l0.531,0.211c-0.202,0.592-0.234,1.18-0.097,1.766
			c0.216,0.908,0.824,2.076,1.823,3.5l4.824,6.834l5.61,2.221c1.115,0.441,1.883,0.537,2.302,0.285
			c0.42-0.252,0.911-0.993,1.475-2.224l0.531,0.21l-3.482,8.797l-0.531-0.21c0.441-1.337,0.568-2.226,0.379-2.665
			s-0.912-0.908-2.168-1.405l-5.006-1.981l-7.027,1.576c-2.422,0.549-4.006,0.979-4.754,1.29s-1.289,0.834-1.623,1.569l-0.531-0.211
			L335.519,252.771z"/>
	</g>
	<circle style="&st3;" cx="194.667" cy="195.089" r="138"/>
	<circle style="&st3;" cx="194.667" cy="195.089" r="143.333"/>
	<circle style="&st11;" cx="194.667" cy="195.089" r="181.333"/>
	<g>
		<path style="&st11;" d="M240.667,122.42c-17.271,0-33.136-5.387-45.667-14.378c-12.531,8.991-28.396,14.378-45.667,14.378
			c-18.363,0-35.135-6.088-48-16.126V216.42c0,28.002,18.397,60.334,45.159,75.668C173.253,307.422,195,320.089,195,320.089
			s21.746-12.667,48.509-28.001c26.762-15.334,45.158-47.666,45.158-75.668V106.294C275.802,116.332,259.029,122.42,240.667,122.42z
			"/>
		<g>
			<path d="M112.49,134.569c1-1.257,2.181-2.268,3.541-3.033l0.223,0.387c-1.257,1-2.154,1.972-2.693,2.916
				c-0.944,1.647-1.417,3.842-1.417,6.582c0,2.03,0.18,3.705,0.539,5.024c0.632,2.312,1.822,4.041,3.571,5.188l-0.305,0.387
				c-0.961-0.461-2.001-1.362-3.119-2.706c-1.853-2.225-2.779-4.755-2.779-7.589C110.051,139.009,110.864,136.623,112.49,134.569z"
				/>
			<path d="M124.66,131.88v0.453c-0.562-0.016-0.984,0.027-1.266,0.129s-0.422,0.32-0.422,0.655c0,0.102,0.023,0.229,0.07,0.38
				s0.152,0.353,0.316,0.603l3.53,5.172l3.443-5.254c0.14-0.226,0.232-0.414,0.275-0.562s0.064-0.257,0.064-0.328
				c0-0.344-0.184-0.569-0.55-0.679c-0.219-0.07-0.594-0.109-1.125-0.117v-0.453h5.246v0.453c-0.484,0.023-0.917,0.168-1.298,0.433
				c-0.593,0.414-1.26,1.183-2.001,2.306l-3.544,5.41v4.66c0,0.927,0.15,1.505,0.451,1.734c0.3,0.23,0.973,0.372,2.018,0.426v0.453
				h-7.328v-0.453c1.089-0.062,1.765-0.224,2.028-0.485c0.263-0.261,0.394-0.913,0.394-1.957v-4.16l-3.139-4.599
				c-1.085-1.583-1.847-2.6-2.284-3.048c-0.437-0.448-0.968-0.688-1.593-0.72v-0.453H124.66z"/>
			<path d="M141.092,147.302c0.945-0.101,1.533-0.274,1.764-0.519c0.23-0.245,0.346-0.884,0.346-1.918v-10.375
				c0-0.852-0.129-1.408-0.387-1.67s-0.832-0.424-1.723-0.486v-0.453h12.781l0.078,3.438h-0.672
				c-0.164-1.095-0.473-1.788-0.926-2.079c-0.453-0.291-1.348-0.437-2.684-0.437h-3.281c-0.32,0-0.525,0.055-0.615,0.164
				s-0.135,0.324-0.135,0.644v5.349h3.469c1.025,0,1.678-0.151,1.959-0.455c0.282-0.303,0.509-0.917,0.681-1.842h0.562v5.547h-0.562
				c-0.18-0.93-0.411-1.545-0.693-1.846c-0.281-0.301-0.931-0.451-1.948-0.451h-3.469v5.234c0,0.878,0.135,1.439,0.405,1.685
				c0.271,0.244,0.859,0.402,1.767,0.472v0.453h-6.719V147.302z"/>
			<path d="M161.041,145.146c-0.305,1.039-0.75,2.019-1.336,2.939c-0.618,0.984-1.443,1.901-2.475,2.753
				c-0.68,0.562-1.251,0.956-1.712,1.183l-0.223-0.387c1.202-0.914,2.08-1.847,2.634-2.799c0.983-1.687,1.475-3.916,1.475-6.688
				c0-2.241-0.227-4.072-0.679-5.493c-0.633-2.006-1.776-3.583-3.431-4.731l0.305-0.387c1.235,0.688,2.384,1.726,3.447,3.115
				c1.634,2.14,2.451,4.537,2.451,7.191C161.498,143.006,161.346,144.107,161.041,145.146z"/>
			<path d="M182.435,138.442v1.641h-12.109v-1.641H182.435z M182.435,143.286v1.641h-12.109v-1.641H182.435z"/>
			<path d="M193.65,134.569c1-1.257,2.181-2.268,3.541-3.033l0.223,0.387c-1.257,1-2.154,1.972-2.693,2.916
				c-0.944,1.647-1.417,3.842-1.417,6.582c0,2.03,0.18,3.705,0.539,5.024c0.632,2.312,1.822,4.041,3.571,5.188l-0.305,0.387
				c-0.961-0.461-2.001-1.362-3.119-2.706c-1.853-2.225-2.779-4.755-2.779-7.589C191.211,139.009,192.024,136.623,193.65,134.569z"
				/>
			<path d="M198.84,147.302c0.945-0.101,1.533-0.274,1.764-0.519c0.23-0.245,0.346-0.884,0.346-1.918v-10.375
				c0-0.852-0.129-1.408-0.387-1.67s-0.832-0.424-1.723-0.486v-0.453h12.781l0.078,3.438h-0.672
				c-0.164-1.095-0.473-1.788-0.926-2.079c-0.453-0.291-1.348-0.437-2.684-0.437h-3.281c-0.32,0-0.525,0.055-0.615,0.164
				s-0.135,0.324-0.135,0.644v5.349h3.469c1.024,0,1.678-0.151,1.959-0.455c0.282-0.303,0.509-0.917,0.682-1.842h0.562v5.547h-0.562
				c-0.181-0.93-0.411-1.545-0.693-1.846c-0.281-0.301-0.931-0.451-1.947-0.451h-3.469v5.234c0,0.878,0.135,1.439,0.404,1.685
				c0.271,0.244,0.859,0.402,1.768,0.472v0.453h-6.719V147.302z"/>
			<path d="M222.431,134.569c1-1.257,2.181-2.268,3.541-3.033l0.223,0.387c-1.257,1-2.154,1.972-2.692,2.916
				c-0.945,1.647-1.417,3.842-1.417,6.582c0,2.03,0.18,3.705,0.538,5.024c0.633,2.312,1.822,4.041,3.571,5.188l-0.305,0.387
				c-0.962-0.461-2.001-1.362-3.119-2.706c-1.853-2.225-2.779-4.755-2.779-7.589C219.991,139.009,220.805,136.623,222.431,134.569z"
				/>
			<path d="M234.6,131.88v0.453c-0.562-0.016-0.984,0.027-1.266,0.129s-0.422,0.32-0.422,0.655c0,0.102,0.023,0.229,0.07,0.38
				s0.152,0.353,0.316,0.603l3.53,5.172l3.442-5.254c0.141-0.226,0.232-0.414,0.275-0.562s0.064-0.257,0.064-0.328
				c0-0.344-0.184-0.569-0.551-0.679c-0.219-0.07-0.594-0.109-1.125-0.117v-0.453h5.246v0.453c-0.483,0.023-0.916,0.168-1.299,0.433
				c-0.593,0.414-1.26,1.183-2,2.306l-3.545,5.41v4.66c0,0.927,0.15,1.505,0.45,1.734c0.301,0.23,0.974,0.372,2.019,0.426v0.453
				h-7.328v-0.453c1.09-0.062,1.766-0.224,2.028-0.485c0.263-0.261,0.394-0.913,0.394-1.957v-4.16l-3.139-4.599
				c-1.086-1.583-1.847-2.6-2.284-3.048c-0.438-0.448-0.968-0.688-1.593-0.72v-0.453H234.6z"/>
			<path d="M251.032,147.302c0.945-0.101,1.533-0.274,1.764-0.519c0.23-0.245,0.346-0.884,0.346-1.918v-10.375
				c0-0.852-0.129-1.408-0.387-1.67s-0.832-0.424-1.723-0.486v-0.453h12.781l0.078,3.438h-0.672
				c-0.164-1.095-0.473-1.788-0.926-2.079c-0.453-0.291-1.348-0.437-2.684-0.437h-3.281c-0.32,0-0.525,0.055-0.615,0.164
				s-0.135,0.324-0.135,0.644v5.349h3.469c1.024,0,1.678-0.151,1.96-0.455c0.281-0.303,0.508-0.917,0.681-1.842h0.562v5.547h-0.562
				c-0.181-0.93-0.411-1.545-0.692-1.846c-0.282-0.301-0.932-0.451-1.948-0.451h-3.469v5.234c0,0.878,0.135,1.439,0.405,1.685
				c0.27,0.244,0.858,0.402,1.767,0.472v0.453h-6.719V147.302z"/>
			<path d="M270.98,145.146c-0.305,1.039-0.75,2.019-1.336,2.939c-0.618,0.984-1.443,1.901-2.475,2.753
				c-0.68,0.562-1.251,0.956-1.712,1.183l-0.223-0.387c1.202-0.914,2.08-1.847,2.634-2.799c0.984-1.687,1.476-3.916,1.476-6.688
				c0-2.241-0.227-4.072-0.679-5.493c-0.633-2.006-1.776-3.583-3.431-4.731l0.305-0.387c1.235,0.688,2.384,1.726,3.447,3.115
				c1.634,2.14,2.451,4.537,2.451,7.191C271.438,143.006,271.286,144.107,270.98,145.146z"/>
			<path d="M279.453,145.146c-0.306,1.039-0.751,2.019-1.337,2.939c-0.618,0.984-1.442,1.901-2.475,2.753
				c-0.681,0.562-1.251,0.956-1.712,1.183l-0.223-0.387c1.202-0.914,2.08-1.847,2.635-2.799c0.982-1.687,1.475-3.916,1.475-6.688
				c0-2.241-0.227-4.072-0.679-5.493c-0.633-2.006-1.776-3.583-3.431-4.731l0.305-0.387c1.234,0.688,2.384,1.726,3.447,3.115
				c1.634,2.14,2.451,4.537,2.451,7.191C279.91,143.006,279.758,144.107,279.453,145.146z"/>
		</g>
		<g>
			<path d="M146.746,211.003l-2.345-8.326c-0.574-2.264-1.388-4.146-2.44-5.646c-1.117-1.436-2.744-2.185-4.881-2.249
				c-2.616,0.064-4.387,1.914-5.312,5.55h-1.962v-1.865c0-3.189,0.653-5.869,1.962-8.039c1.308-2.01,3.27-3.046,5.886-3.11
				c1.562,0,2.902,0.383,4.02,1.148c1.053,0.861,1.962,2.042,2.728,3.541c1.371,3.127,2.647,7.146,3.828,12.058l10.192,36.558
				c0.51,1.372,1.005,2.744,1.483,4.115c0.383,1.372,0.877,2.616,1.483,3.731c1.084,2.425,2.743,3.669,4.977,3.732
				c1.371-0.063,2.52-0.749,3.445-2.058c0.829-1.244,1.244-2.615,1.244-4.114h1.962v3.396c0,3.86-0.622,6.604-1.866,8.23
				c-1.244,1.69-2.903,2.536-4.977,2.536c-2.68-0.064-4.674-1.196-5.981-3.397c-1.372-2.169-2.521-5.184-3.445-9.043l-6.173-24.26
				h-0.191l-13.303,35.743h-8.948L146.746,211.003z"/>
		</g>
	</g>
	<g>
		<path style="&st3;" d="M248.834,180.583c-8.636,0-16.568-2.693-22.834-7.189c-6.265,4.496-14.197,7.189-22.833,7.189
			c-9.182,0-17.568-3.044-24-8.063v55.063c0,14.001,9.199,30.167,22.579,37.834c13.381,7.667,24.254,14,24.254,14
			s10.873-6.333,24.255-14c13.381-7.667,22.579-23.833,22.579-37.834V172.52C266.401,177.539,258.015,180.583,248.834,180.583z"/>
		<g>
			<path d="M184.745,186.657c0.5-0.628,1.09-1.134,1.771-1.517l0.111,0.193c-0.628,0.5-1.077,0.986-1.347,1.458
				c-0.472,0.824-0.708,1.921-0.708,3.291c0,1.015,0.09,1.853,0.27,2.512c0.316,1.156,0.911,2.02,1.785,2.594l-0.152,0.193
				c-0.48-0.23-1-0.681-1.56-1.353c-0.927-1.113-1.39-2.378-1.39-3.795C183.525,188.877,183.932,187.684,184.745,186.657z"/>
			<path d="M190.83,185.312v0.227c-0.281-0.008-0.492,0.014-0.633,0.064s-0.211,0.16-0.211,0.328c0,0.051,0.012,0.114,0.035,0.19
				c0.023,0.076,0.076,0.177,0.158,0.302l1.765,2.586l1.721-2.627c0.07-0.113,0.116-0.207,0.138-0.281
				c0.021-0.074,0.032-0.128,0.032-0.164c0-0.172-0.092-0.285-0.275-0.339c-0.109-0.035-0.297-0.055-0.562-0.059v-0.227h2.623v0.227
				c-0.242,0.012-0.458,0.084-0.649,0.216c-0.296,0.207-0.63,0.591-1,1.153l-1.772,2.705v2.33c0,0.463,0.075,0.752,0.225,0.867
				c0.15,0.115,0.487,0.186,1.009,0.213v0.227h-3.664v-0.227c0.545-0.031,0.883-0.112,1.014-0.242
				c0.131-0.131,0.197-0.457,0.197-0.979v-2.08l-1.569-2.3c-0.543-0.792-0.923-1.3-1.142-1.524s-0.484-0.344-0.796-0.36v-0.227
				H190.83z"/>
			<path d="M199.046,193.023c0.473-0.051,0.767-0.137,0.882-0.26c0.115-0.122,0.173-0.442,0.173-0.959v-5.188
				c0-0.426-0.064-0.704-0.193-0.835s-0.416-0.212-0.861-0.243v-0.227h6.391l0.039,1.719h-0.336
				c-0.082-0.547-0.236-0.894-0.463-1.04c-0.227-0.146-0.674-0.218-1.342-0.218h-1.641c-0.16,0-0.263,0.027-0.308,0.082
				s-0.067,0.162-0.067,0.322v2.674h1.734c0.513,0,0.839-0.076,0.979-0.228c0.142-0.151,0.255-0.458,0.341-0.921h0.281v2.773h-0.281
				c-0.09-0.465-0.205-0.772-0.347-0.923c-0.141-0.15-0.465-0.226-0.974-0.226h-1.734v2.617c0,0.439,0.067,0.72,0.202,0.842
				c0.136,0.122,0.43,0.201,0.884,0.236v0.227h-3.359V193.023z"/>
			<path d="M209.021,191.945c-0.152,0.52-0.376,1.009-0.669,1.47c-0.309,0.492-0.721,0.951-1.236,1.376
				c-0.341,0.281-0.626,0.478-0.856,0.591l-0.111-0.193c0.601-0.457,1.04-0.923,1.317-1.399c0.491-0.843,0.737-1.958,0.737-3.344
				c0-1.121-0.113-2.036-0.34-2.747c-0.315-1.003-0.888-1.792-1.715-2.366l0.152-0.193c0.617,0.344,1.192,0.863,1.724,1.558
				c0.817,1.07,1.226,2.269,1.226,3.596C209.249,190.876,209.173,191.426,209.021,191.945z"/>
			<path d="M219.718,188.594v0.82h-6.055v-0.82H219.718z M219.718,191.016v0.82h-6.055v-0.82H219.718z"/>
			<path d="M225.325,186.657c0.5-0.628,1.091-1.134,1.771-1.517l0.111,0.193c-0.629,0.5-1.077,0.986-1.347,1.458
				c-0.472,0.824-0.708,1.921-0.708,3.291c0,1.015,0.09,1.853,0.27,2.512c0.315,1.156,0.911,2.02,1.785,2.594l-0.152,0.193
				c-0.48-0.23-1.001-0.681-1.56-1.353c-0.927-1.113-1.39-2.378-1.39-3.795C224.105,188.877,224.512,187.684,225.325,186.657z"/>
			<path d="M227.92,193.023c0.473-0.051,0.767-0.137,0.882-0.26c0.115-0.122,0.173-0.442,0.173-0.959v-5.188
				c0-0.426-0.064-0.704-0.193-0.835s-0.416-0.212-0.861-0.243v-0.227h6.391l0.039,1.719h-0.336
				c-0.082-0.547-0.236-0.894-0.463-1.04c-0.227-0.146-0.674-0.218-1.342-0.218h-1.641c-0.16,0-0.263,0.027-0.308,0.082
				s-0.067,0.162-0.067,0.322v2.674h1.734c0.513,0,0.839-0.076,0.979-0.228c0.142-0.151,0.255-0.458,0.341-0.921h0.281v2.773h-0.281
				c-0.09-0.465-0.205-0.772-0.347-0.923c-0.141-0.15-0.465-0.226-0.974-0.226h-1.734v2.617c0,0.439,0.067,0.72,0.202,0.842
				c0.136,0.122,0.43,0.201,0.884,0.236v0.227h-3.359V193.023z"/>
			<path d="M239.715,186.657c0.5-0.628,1.091-1.134,1.771-1.517l0.111,0.193c-0.628,0.5-1.077,0.986-1.347,1.458
				c-0.472,0.824-0.708,1.921-0.708,3.291c0,1.015,0.09,1.853,0.27,2.512c0.315,1.156,0.911,2.02,1.785,2.594l-0.152,0.193
				c-0.48-0.23-1.001-0.681-1.56-1.353c-0.927-1.113-1.39-2.378-1.39-3.795C238.495,188.877,238.901,187.684,239.715,186.657z"/>
			<path d="M245.8,185.312v0.227c-0.281-0.008-0.492,0.014-0.633,0.064s-0.211,0.16-0.211,0.328c0,0.051,0.012,0.114,0.035,0.19
				c0.023,0.076,0.076,0.177,0.158,0.302l1.765,2.586l1.722-2.627c0.07-0.113,0.116-0.207,0.138-0.281
				c0.021-0.074,0.032-0.128,0.032-0.164c0-0.172-0.092-0.285-0.275-0.339c-0.109-0.035-0.297-0.055-0.562-0.059v-0.227h2.623v0.227
				c-0.242,0.012-0.458,0.084-0.649,0.216c-0.296,0.207-0.63,0.591-1,1.153l-1.772,2.705v2.33c0,0.463,0.075,0.752,0.226,0.867
				c0.149,0.115,0.486,0.186,1.009,0.213v0.227h-3.664v-0.227c0.545-0.031,0.883-0.112,1.014-0.242
				c0.132-0.131,0.197-0.457,0.197-0.979v-2.08l-1.569-2.3c-0.543-0.792-0.924-1.3-1.143-1.524c-0.218-0.224-0.483-0.344-0.796-0.36
				v-0.227H245.8z"/>
			<path d="M254.017,193.023c0.473-0.051,0.767-0.137,0.882-0.26c0.115-0.122,0.173-0.442,0.173-0.959v-5.188
				c0-0.426-0.064-0.704-0.193-0.835s-0.416-0.212-0.861-0.243v-0.227h6.391l0.039,1.719h-0.336
				c-0.082-0.547-0.236-0.894-0.463-1.04c-0.227-0.146-0.674-0.218-1.342-0.218h-1.641c-0.16,0-0.263,0.027-0.308,0.082
				s-0.067,0.162-0.067,0.322v2.674h1.734c0.513,0,0.839-0.076,0.979-0.228c0.142-0.151,0.255-0.458,0.341-0.921h0.281v2.773h-0.281
				c-0.09-0.465-0.205-0.772-0.347-0.923c-0.141-0.15-0.465-0.226-0.974-0.226h-1.734v2.617c0,0.439,0.067,0.72,0.202,0.842
				c0.136,0.122,0.43,0.201,0.884,0.236v0.227h-3.359V193.023z"/>
			<path d="M263.99,191.945c-0.152,0.52-0.375,1.009-0.669,1.47c-0.309,0.492-0.721,0.951-1.237,1.376
				c-0.34,0.281-0.625,0.478-0.855,0.591l-0.111-0.193c0.601-0.457,1.04-0.923,1.317-1.399c0.491-0.843,0.737-1.958,0.737-3.344
				c0-1.121-0.113-2.036-0.34-2.747c-0.315-1.003-0.888-1.792-1.715-2.366l0.152-0.193c0.617,0.344,1.192,0.863,1.724,1.558
				c0.817,1.07,1.226,2.269,1.226,3.596C264.219,190.876,264.143,191.426,263.99,191.945z"/>
			<path d="M268.227,191.945c-0.152,0.52-0.375,1.009-0.669,1.47c-0.309,0.492-0.721,0.951-1.237,1.376
				c-0.34,0.281-0.625,0.478-0.855,0.591l-0.111-0.193c0.601-0.457,1.04-0.923,1.317-1.399c0.491-0.843,0.737-1.958,0.737-3.344
				c0-1.121-0.113-2.036-0.34-2.747c-0.315-1.003-0.888-1.792-1.715-2.366l0.152-0.193c0.617,0.344,1.192,0.863,1.724,1.558
				c0.817,1.07,1.226,2.269,1.226,3.596C268.455,190.876,268.379,191.426,268.227,191.945z"/>
		</g>
		<g>
			<path d="M201.873,224.874l-1.172-4.163c-0.287-1.132-0.694-2.073-1.221-2.823c-0.559-0.717-1.372-1.092-2.44-1.124
				c-1.308,0.032-2.193,0.957-2.656,2.774h-0.981v-0.932c0-1.596,0.327-2.936,0.981-4.02c0.654-1.006,1.635-1.523,2.943-1.556
				c0.781,0,1.451,0.191,2.01,0.574c0.526,0.431,0.981,1.021,1.364,1.771c0.686,1.563,1.323,3.572,1.914,6.029l5.096,18.278
				c0.255,0.687,0.502,1.372,0.742,2.058c0.191,0.686,0.438,1.309,0.741,1.865c0.542,1.213,1.372,1.835,2.488,1.867
				c0.686-0.032,1.26-0.375,1.723-1.029c0.415-0.622,0.622-1.308,0.622-2.057h0.98v1.697c0,1.931-0.311,3.303-0.933,4.115
				c-0.622,0.846-1.452,1.269-2.488,1.269c-1.34-0.032-2.337-0.599-2.991-1.698c-0.686-1.085-1.26-2.592-1.723-4.521l-3.086-12.131
				h-0.096l-6.651,17.872h-4.474L201.873,224.874z"/>
		</g>
	</g>
	<g>
		<path style="&st2;" d="M252.917,209.664c-4.317,0-8.284-1.347-11.417-3.595c-3.132,2.248-7.099,3.595-11.416,3.595
			c-4.591,0-8.784-1.522-12-4.032v27.532c0,7.001,4.6,15.083,11.289,18.917c6.69,3.834,12.127,7,12.127,7s5.437-3.166,12.128-7
			c6.69-3.834,11.289-11.916,11.289-18.917v-27.532C261.701,208.142,257.508,209.664,252.917,209.664z"/>
		<g>
			<path d="M220.872,212.701c0.251-0.314,0.546-0.567,0.886-0.759l0.056,0.097c-0.314,0.25-0.538,0.493-0.673,0.729
				c-0.236,0.411-0.354,0.96-0.354,1.646c0,0.507,0.045,0.926,0.135,1.256c0.158,0.577,0.455,1.01,0.893,1.297l-0.076,0.097
				c-0.24-0.115-0.5-0.341-0.78-0.677c-0.463-0.556-0.694-1.188-0.694-1.897C220.263,213.811,220.466,213.214,220.872,212.701z"/>
			<path d="M223.915,212.028v0.113c-0.141-0.004-0.246,0.007-0.316,0.032s-0.105,0.08-0.105,0.164c0,0.025,0.006,0.057,0.018,0.095
				s0.038,0.088,0.079,0.15l0.883,1.293l0.86-1.313c0.035-0.056,0.058-0.103,0.069-0.14c0.01-0.037,0.016-0.064,0.016-0.082
				c0-0.086-0.046-0.143-0.138-0.17c-0.055-0.018-0.148-0.027-0.281-0.029v-0.113h1.312v0.113c-0.121,0.006-0.229,0.042-0.324,0.108
				c-0.148,0.104-0.315,0.295-0.501,0.576l-0.886,1.353v1.165c0,0.231,0.037,0.376,0.112,0.434s0.243,0.093,0.505,0.106v0.113
				h-1.832v-0.113c0.272-0.016,0.441-0.056,0.507-0.121s0.099-0.229,0.099-0.489v-1.04l-0.785-1.149
				c-0.271-0.396-0.461-0.65-0.57-0.763s-0.242-0.172-0.398-0.18v-0.113H223.915z"/>
			<path d="M228.023,215.884c0.236-0.025,0.383-0.068,0.441-0.13c0.057-0.062,0.086-0.221,0.086-0.479v-2.594
				c0-0.213-0.032-0.352-0.097-0.418c-0.064-0.064-0.208-0.105-0.431-0.121v-0.113h3.195l0.02,0.859h-0.168
				c-0.041-0.273-0.118-0.447-0.231-0.52c-0.113-0.073-0.337-0.109-0.671-0.109h-0.82c-0.08,0-0.131,0.014-0.154,0.041
				c-0.021,0.027-0.033,0.081-0.033,0.161v1.337h0.867c0.256,0,0.42-0.038,0.49-0.113c0.07-0.076,0.127-0.229,0.17-0.461h0.141
				v1.387h-0.141c-0.045-0.232-0.103-0.387-0.173-0.461c-0.07-0.076-0.233-0.113-0.487-0.113h-0.867v1.309
				c0,0.22,0.034,0.36,0.102,0.421c0.067,0.062,0.215,0.101,0.441,0.118v0.113h-1.68V215.884z"/>
			<path d="M233.011,215.345c-0.076,0.26-0.188,0.505-0.334,0.735c-0.154,0.245-0.361,0.475-0.619,0.688
				c-0.17,0.141-0.312,0.239-0.428,0.296l-0.056-0.097c0.301-0.229,0.52-0.462,0.658-0.7c0.246-0.421,0.369-0.979,0.369-1.672
				c0-0.56-0.057-1.018-0.17-1.373c-0.158-0.501-0.443-0.896-0.857-1.183l0.076-0.097c0.309,0.172,0.596,0.432,0.862,0.779
				c0.408,0.534,0.612,1.134,0.612,1.797C233.125,214.81,233.087,215.085,233.011,215.345z"/>
			<path d="M238.358,213.669v0.41h-3.027v-0.41H238.358z M238.358,214.88v0.41h-3.027v-0.41H238.358z"/>
			<path d="M241.162,212.701c0.251-0.314,0.546-0.567,0.886-0.759l0.056,0.097c-0.314,0.25-0.539,0.493-0.673,0.729
				c-0.236,0.411-0.354,0.96-0.354,1.646c0,0.507,0.045,0.926,0.135,1.256c0.158,0.577,0.455,1.01,0.893,1.297l-0.076,0.097
				c-0.24-0.115-0.5-0.341-0.779-0.677c-0.464-0.556-0.695-1.188-0.695-1.897C240.553,213.811,240.756,213.214,241.162,212.701z"/>
			<path d="M242.46,215.884c0.236-0.025,0.384-0.068,0.44-0.13c0.059-0.062,0.087-0.221,0.087-0.479v-2.594
				c0-0.213-0.032-0.352-0.097-0.418c-0.064-0.064-0.208-0.105-0.431-0.121v-0.113h3.195l0.02,0.859h-0.168
				c-0.041-0.273-0.118-0.447-0.231-0.52c-0.113-0.073-0.337-0.109-0.671-0.109h-0.82c-0.08,0-0.132,0.014-0.153,0.041
				c-0.023,0.027-0.034,0.081-0.034,0.161v1.337h0.867c0.256,0,0.42-0.038,0.49-0.113c0.07-0.076,0.127-0.229,0.17-0.461h0.141
				v1.387h-0.141c-0.045-0.232-0.103-0.387-0.173-0.461c-0.07-0.076-0.233-0.113-0.487-0.113h-0.867v1.309
				c0,0.22,0.034,0.36,0.102,0.421c0.067,0.062,0.215,0.101,0.441,0.118v0.113h-1.68V215.884z"/>
			<path d="M248.357,212.701c0.251-0.314,0.546-0.567,0.886-0.759l0.056,0.097c-0.314,0.25-0.539,0.493-0.673,0.729
				c-0.236,0.411-0.354,0.96-0.354,1.646c0,0.507,0.045,0.926,0.135,1.256c0.158,0.577,0.455,1.01,0.893,1.297l-0.076,0.097
				c-0.24-0.115-0.5-0.341-0.779-0.677c-0.464-0.556-0.695-1.188-0.695-1.897C247.748,213.811,247.951,213.214,248.357,212.701z"/>
			<path d="M251.4,212.028v0.113c-0.141-0.004-0.246,0.007-0.316,0.032s-0.105,0.08-0.105,0.164c0,0.025,0.006,0.057,0.018,0.095
				s0.038,0.088,0.079,0.15l0.883,1.293l0.86-1.313c0.035-0.056,0.059-0.103,0.068-0.14c0.012-0.037,0.017-0.064,0.017-0.082
				c0-0.086-0.046-0.143-0.138-0.17c-0.055-0.018-0.148-0.027-0.281-0.029v-0.113h1.312v0.113c-0.121,0.006-0.229,0.042-0.324,0.108
				c-0.148,0.104-0.315,0.295-0.501,0.576l-0.886,1.353v1.165c0,0.231,0.037,0.376,0.112,0.434s0.243,0.093,0.505,0.106v0.113
				h-1.832v-0.113c0.272-0.016,0.441-0.056,0.507-0.121s0.099-0.229,0.099-0.489v-1.04l-0.785-1.149
				c-0.271-0.396-0.461-0.65-0.57-0.763s-0.242-0.172-0.398-0.18v-0.113H251.4z"/>
			<path d="M255.508,215.884c0.236-0.025,0.383-0.068,0.441-0.13c0.057-0.062,0.086-0.221,0.086-0.479v-2.594
				c0-0.213-0.032-0.352-0.097-0.418c-0.064-0.064-0.208-0.105-0.431-0.121v-0.113h3.195l0.02,0.859h-0.168
				c-0.041-0.273-0.118-0.447-0.231-0.52c-0.113-0.073-0.337-0.109-0.671-0.109h-0.82c-0.08,0-0.131,0.014-0.154,0.041
				c-0.021,0.027-0.033,0.081-0.033,0.161v1.337h0.867c0.256,0,0.42-0.038,0.49-0.113c0.07-0.076,0.127-0.229,0.17-0.461h0.141
				v1.387h-0.141c-0.045-0.232-0.103-0.387-0.173-0.461c-0.07-0.076-0.233-0.113-0.487-0.113h-0.867v1.309
				c0,0.22,0.034,0.36,0.102,0.421c0.067,0.062,0.215,0.101,0.441,0.118v0.113h-1.68V215.884z"/>
			<path d="M260.495,215.345c-0.076,0.26-0.188,0.505-0.334,0.735c-0.154,0.245-0.361,0.475-0.619,0.688
				c-0.17,0.141-0.312,0.239-0.428,0.296l-0.056-0.097c0.301-0.229,0.52-0.462,0.658-0.7c0.246-0.421,0.369-0.979,0.369-1.672
				c0-0.56-0.057-1.018-0.17-1.373c-0.158-0.501-0.443-0.896-0.857-1.183l0.076-0.097c0.309,0.172,0.596,0.432,0.862,0.779
				c0.408,0.534,0.612,1.134,0.612,1.797C260.609,214.81,260.571,215.085,260.495,215.345z"/>
			<path d="M262.613,215.345c-0.076,0.26-0.188,0.505-0.334,0.735c-0.154,0.245-0.361,0.475-0.619,0.688
				c-0.17,0.141-0.312,0.239-0.428,0.296l-0.056-0.097c0.301-0.229,0.521-0.462,0.658-0.7c0.246-0.421,0.369-0.979,0.369-1.672
				c0-0.56-0.057-1.018-0.17-1.373c-0.158-0.501-0.443-0.896-0.857-1.183l0.076-0.097c0.309,0.172,0.596,0.432,0.862,0.779
				c0.408,0.534,0.612,1.134,0.612,1.797C262.728,214.81,262.689,215.085,262.613,215.345z"/>
		</g>
		<g>
			<path d="M229.437,231.81l-0.586-2.082c-0.144-0.566-0.347-1.036-0.61-1.411c-0.279-0.359-0.686-0.546-1.221-0.562
				c-0.653,0.017-1.096,0.479-1.327,1.388h-0.491v-0.467c0-0.797,0.164-1.467,0.491-2.01c0.327-0.502,0.817-0.762,1.472-0.777
				c0.391,0,0.725,0.096,1.004,0.287c0.264,0.215,0.491,0.511,0.683,0.885c0.343,0.782,0.661,1.787,0.957,3.015l2.548,9.14
				c0.127,0.343,0.251,0.686,0.371,1.029c0.096,0.343,0.219,0.653,0.371,0.933c0.271,0.606,0.686,0.917,1.244,0.933
				c0.342-0.016,0.629-0.188,0.861-0.514c0.207-0.312,0.311-0.654,0.311-1.029h0.49v0.85c0,0.965-0.155,1.65-0.467,2.058
				c-0.311,0.423-0.726,0.634-1.244,0.634c-0.67-0.016-1.168-0.299-1.495-0.85c-0.343-0.542-0.63-1.296-0.861-2.261l-1.543-6.064
				h-0.048l-3.326,8.936h-2.236L229.437,231.81z"/>
		</g>
	</g>
	<g>
		<path style="&st7;" d="M254.959,224.204c-2.159,0-4.143-0.673-5.709-1.797c-1.565,1.124-3.549,1.797-5.708,1.797
			c-2.295,0-4.392-0.761-6-2.016v13.766c0,3.501,2.3,7.542,5.645,9.459c3.346,1.917,6.063,3.5,6.063,3.5s2.719-1.583,6.064-3.5
			c3.345-1.917,5.645-5.958,5.645-9.459v-13.766C259.351,223.443,257.254,224.204,254.959,224.204z"/>
		<g>
			<path d="M238.936,225.723c0.125-0.157,0.272-0.283,0.443-0.379l0.027,0.048c-0.157,0.125-0.27,0.247-0.337,0.365
				c-0.118,0.206-0.177,0.48-0.177,0.822c0,0.254,0.022,0.463,0.067,0.628c0.079,0.289,0.228,0.506,0.446,0.649l-0.038,0.048
				c-0.12-0.058-0.25-0.17-0.39-0.338c-0.231-0.278-0.348-0.595-0.348-0.949C238.631,226.277,238.732,225.979,238.936,225.723z"/>
			<path d="M240.457,225.387v0.057c-0.07-0.002-0.123,0.003-0.158,0.016s-0.053,0.04-0.053,0.082c0,0.013,0.002,0.029,0.008,0.048
				c0.006,0.02,0.02,0.044,0.04,0.075l0.441,0.646l0.431-0.656c0.018-0.028,0.028-0.052,0.034-0.07
				c0.005-0.019,0.008-0.032,0.008-0.041c0-0.043-0.022-0.071-0.068-0.085c-0.027-0.009-0.074-0.014-0.141-0.015v-0.057h0.655v0.057
				c-0.061,0.003-0.114,0.021-0.162,0.054c-0.074,0.052-0.157,0.148-0.25,0.289l-0.443,0.676v0.582c0,0.116,0.019,0.188,0.057,0.217
				c0.037,0.029,0.121,0.047,0.252,0.054v0.057h-0.916v-0.057c0.136-0.008,0.221-0.028,0.254-0.061
				c0.032-0.032,0.049-0.114,0.049-0.245v-0.52l-0.393-0.575c-0.136-0.197-0.23-0.324-0.285-0.381
				c-0.055-0.056-0.121-0.086-0.199-0.09v-0.057H240.457z"/>
			<path d="M242.512,227.314c0.118-0.013,0.191-0.034,0.221-0.064c0.028-0.031,0.043-0.111,0.043-0.24v-1.297
				c0-0.106-0.016-0.176-0.049-0.209c-0.031-0.032-0.104-0.053-0.215-0.061v-0.057h1.598l0.01,0.43h-0.084
				c-0.021-0.137-0.059-0.224-0.115-0.26s-0.169-0.055-0.336-0.055h-0.41c-0.04,0-0.065,0.007-0.077,0.021
				c-0.011,0.014-0.017,0.04-0.017,0.08v0.669h0.434c0.128,0,0.21-0.019,0.245-0.057s0.063-0.115,0.085-0.23h0.07v0.693h-0.07
				c-0.022-0.116-0.052-0.193-0.087-0.23c-0.035-0.038-0.116-0.057-0.243-0.057h-0.434v0.654c0,0.109,0.017,0.18,0.051,0.211
				c0.033,0.03,0.107,0.05,0.221,0.059v0.057h-0.84V227.314z"/>
			<path d="M245.005,227.045c-0.038,0.13-0.094,0.252-0.167,0.367c-0.077,0.123-0.18,0.238-0.309,0.345
				c-0.085,0.07-0.156,0.119-0.215,0.147l-0.027-0.048c0.15-0.114,0.26-0.231,0.329-0.351c0.123-0.211,0.185-0.489,0.185-0.836
				c0-0.28-0.028-0.509-0.085-0.687c-0.079-0.251-0.222-0.448-0.429-0.592l0.038-0.048c0.154,0.086,0.298,0.216,0.431,0.39
				c0.204,0.268,0.307,0.566,0.307,0.898C245.062,226.777,245.043,226.915,245.005,227.045z"/>
			<path d="M247.679,226.207v0.205h-1.514v-0.205H247.679z M247.679,226.812v0.205h-1.514v-0.205H247.679z"/>
			<path d="M249.082,225.723c0.125-0.157,0.272-0.283,0.443-0.379l0.027,0.048c-0.157,0.125-0.27,0.247-0.337,0.365
				c-0.118,0.206-0.177,0.48-0.177,0.822c0,0.254,0.022,0.463,0.067,0.628c0.079,0.289,0.228,0.506,0.446,0.649l-0.038,0.048
				c-0.12-0.058-0.25-0.17-0.39-0.338c-0.231-0.278-0.348-0.595-0.348-0.949C248.777,226.277,248.879,225.979,249.082,225.723z"/>
			<path d="M249.729,227.314c0.118-0.013,0.191-0.034,0.221-0.064c0.028-0.031,0.043-0.111,0.043-0.24v-1.297
				c0-0.106-0.017-0.176-0.048-0.209c-0.033-0.032-0.104-0.053-0.216-0.061v-0.057h1.598l0.01,0.43h-0.084
				c-0.021-0.137-0.06-0.224-0.116-0.26s-0.168-0.055-0.335-0.055h-0.41c-0.04,0-0.065,0.007-0.077,0.021
				c-0.011,0.014-0.017,0.04-0.017,0.08v0.669h0.434c0.128,0,0.21-0.019,0.245-0.057s0.063-0.115,0.085-0.23h0.07v0.693h-0.07
				c-0.022-0.116-0.052-0.193-0.087-0.23c-0.035-0.038-0.116-0.057-0.243-0.057h-0.434v0.654c0,0.109,0.017,0.18,0.051,0.211
				c0.033,0.03,0.107,0.05,0.221,0.059v0.057h-0.84V227.314z"/>
			<path d="M252.68,225.723c0.125-0.157,0.272-0.283,0.443-0.379l0.027,0.048c-0.157,0.125-0.27,0.247-0.337,0.365
				c-0.118,0.206-0.177,0.48-0.177,0.822c0,0.254,0.022,0.463,0.067,0.628c0.079,0.289,0.228,0.506,0.446,0.649l-0.038,0.048
				c-0.12-0.058-0.25-0.17-0.39-0.338c-0.231-0.278-0.348-0.595-0.348-0.949C252.375,226.277,252.477,225.979,252.68,225.723z"/>
			<path d="M254.199,225.387v0.057c-0.07-0.002-0.123,0.003-0.158,0.016s-0.053,0.04-0.053,0.082c0,0.013,0.004,0.029,0.01,0.048
				c0.006,0.02,0.019,0.044,0.039,0.075l0.441,0.646l0.431-0.656c0.017-0.028,0.028-0.052,0.034-0.07
				c0.005-0.019,0.008-0.032,0.008-0.041c0-0.043-0.023-0.071-0.068-0.085c-0.027-0.009-0.074-0.014-0.141-0.015v-0.057h0.655v0.057
				c-0.061,0.003-0.114,0.021-0.162,0.054c-0.074,0.052-0.157,0.148-0.25,0.289l-0.443,0.676v0.582c0,0.116,0.019,0.188,0.057,0.217
				c0.037,0.029,0.121,0.047,0.252,0.054v0.057h-0.916v-0.057c0.136-0.008,0.221-0.028,0.254-0.061
				c0.032-0.032,0.049-0.114,0.049-0.245v-0.52l-0.393-0.575c-0.136-0.197-0.23-0.324-0.285-0.381
				c-0.055-0.056-0.121-0.086-0.199-0.09v-0.057H254.199z"/>
			<path d="M256.255,227.314c0.118-0.013,0.191-0.034,0.221-0.064c0.028-0.031,0.043-0.111,0.043-0.24v-1.297
				c0-0.106-0.017-0.176-0.048-0.209c-0.033-0.032-0.104-0.053-0.216-0.061v-0.057h1.598l0.01,0.43h-0.084
				c-0.021-0.137-0.06-0.224-0.116-0.26s-0.168-0.055-0.335-0.055h-0.41c-0.04,0-0.065,0.007-0.077,0.021
				c-0.011,0.014-0.017,0.04-0.017,0.08v0.669h0.434c0.128,0,0.21-0.019,0.245-0.057s0.063-0.115,0.085-0.23h0.07v0.693h-0.07
				c-0.022-0.116-0.052-0.193-0.087-0.23c-0.035-0.038-0.116-0.057-0.243-0.057h-0.434v0.654c0,0.109,0.017,0.18,0.051,0.211
				c0.033,0.03,0.107,0.05,0.221,0.059v0.057h-0.84V227.314z"/>
			<path d="M258.748,227.045c-0.038,0.13-0.094,0.252-0.167,0.367c-0.077,0.123-0.18,0.238-0.309,0.345
				c-0.085,0.07-0.157,0.119-0.215,0.147l-0.027-0.048c0.15-0.114,0.26-0.231,0.329-0.351c0.123-0.211,0.185-0.489,0.185-0.836
				c0-0.28-0.028-0.509-0.085-0.687c-0.079-0.251-0.222-0.448-0.429-0.592l0.038-0.048c0.154,0.086,0.298,0.216,0.431,0.39
				c0.204,0.268,0.307,0.566,0.307,0.898C258.806,226.777,258.786,226.915,258.748,227.045z"/>
			<path d="M259.807,227.045c-0.038,0.13-0.094,0.252-0.167,0.367c-0.077,0.123-0.18,0.238-0.309,0.345
				c-0.085,0.07-0.157,0.119-0.215,0.147l-0.027-0.048c0.15-0.114,0.26-0.231,0.329-0.351c0.123-0.211,0.185-0.489,0.185-0.836
				c0-0.28-0.028-0.509-0.085-0.687c-0.079-0.251-0.222-0.448-0.429-0.592l0.038-0.048c0.154,0.086,0.298,0.216,0.431,0.39
				c0.204,0.268,0.307,0.566,0.307,0.898C259.864,226.777,259.845,226.915,259.807,227.045z"/>
		</g>
		<g>
			<path d="M243.219,235.277l-0.294-1.041c-0.071-0.283-0.173-0.519-0.305-0.706c-0.14-0.179-0.343-0.272-0.61-0.281
				c-0.327,0.009-0.548,0.24-0.664,0.694h-0.245v-0.233c0-0.398,0.082-0.733,0.245-1.005c0.164-0.251,0.409-0.381,0.736-0.389
				c0.195,0,0.362,0.048,0.502,0.144c0.132,0.107,0.245,0.255,0.341,0.442c0.172,0.392,0.331,0.894,0.479,1.508l1.274,4.569
				c0.063,0.172,0.126,0.343,0.186,0.515c0.048,0.171,0.109,0.327,0.186,0.466c0.135,0.304,0.343,0.459,0.622,0.467
				c0.171-0.008,0.314-0.094,0.431-0.257c0.104-0.155,0.155-0.327,0.155-0.515h0.245v0.425c0,0.482-0.078,0.825-0.233,1.028
				c-0.155,0.212-0.362,0.317-0.622,0.317c-0.335-0.008-0.584-0.149-0.747-0.425c-0.172-0.271-0.315-0.647-0.431-1.13l-0.771-3.033
				h-0.024l-1.663,4.468h-1.118L243.219,235.277z"/>
		</g>
	</g>
	<g>
		<path style="&st5;" d="M255.979,231.475c-1.079,0-2.071-0.336-2.854-0.898c-0.782,0.562-1.774,0.898-2.854,0.898
			c-1.147,0-2.196-0.38-3-1.008v6.883c0,1.751,1.149,3.771,2.822,4.729c1.673,0.959,3.031,1.75,3.031,1.75s1.359-0.791,3.032-1.75
			c1.673-0.958,2.822-2.979,2.822-4.729v-6.883C258.176,231.095,257.127,231.475,255.979,231.475z"/>
		<g>
			<path d="M250.109,237.011l-0.146-0.521c-0.036-0.142-0.087-0.259-0.152-0.353c-0.07-0.09-0.172-0.137-0.306-0.141
				c-0.163,0.004-0.274,0.119-0.332,0.347h-0.122v-0.116c0-0.2,0.04-0.367,0.122-0.503c0.082-0.126,0.204-0.19,0.368-0.194
				c0.098,0,0.182,0.023,0.251,0.072c0.065,0.054,0.123,0.127,0.171,0.221c0.085,0.195,0.165,0.446,0.239,0.754l0.637,2.285
				c0.032,0.085,0.062,0.171,0.093,0.257c0.023,0.086,0.055,0.163,0.093,0.233c0.067,0.151,0.171,0.229,0.311,0.233
				c0.086-0.005,0.158-0.047,0.216-0.129c0.052-0.078,0.078-0.163,0.078-0.257h0.122v0.212c0,0.241-0.039,0.413-0.116,0.515
				c-0.078,0.105-0.182,0.158-0.312,0.158c-0.167-0.004-0.292-0.075-0.374-0.212c-0.086-0.136-0.157-0.324-0.215-0.565l-0.386-1.517
				h-0.013l-0.831,2.234h-0.56L250.109,237.011z"/>
		</g>
		<line style="&st14;" x1="247.834" y1="232.666" x2="258.334" y2="232.666"/>
	</g>
	<g>
		<path style="&st17;" d="M256.49,235.11c-0.54,0-1.036-0.168-1.428-0.449c-0.391,0.281-0.887,0.449-1.427,0.449
			c-0.573,0-1.098-0.19-1.5-0.504v3.441c0,0.875,0.575,1.885,1.411,2.364c0.837,0.479,1.516,0.875,1.516,0.875
			s0.68-0.396,1.517-0.875c0.836-0.479,1.411-1.489,1.411-2.364v-3.441C257.588,234.92,257.063,235.11,256.49,235.11z"/>
		<g>
			<path d="M253.555,237.878l-0.073-0.26c-0.019-0.071-0.044-0.13-0.076-0.177c-0.035-0.045-0.086-0.068-0.152-0.07
				c-0.082,0.002-0.138,0.06-0.166,0.173h-0.062v-0.058c0-0.1,0.021-0.184,0.062-0.251c0.04-0.063,0.102-0.096,0.184-0.098
				c0.049,0,0.091,0.012,0.126,0.036c0.032,0.026,0.061,0.063,0.085,0.11c0.043,0.098,0.083,0.224,0.119,0.377l0.319,1.143
				c0.016,0.043,0.031,0.086,0.046,0.128c0.012,0.043,0.027,0.082,0.046,0.117c0.034,0.075,0.086,0.114,0.156,0.116
				c0.043-0.002,0.078-0.023,0.107-0.064c0.025-0.038,0.039-0.081,0.039-0.128h0.062v0.105c0,0.121-0.02,0.207-0.059,0.258
				c-0.039,0.053-0.091,0.079-0.155,0.079c-0.084-0.002-0.146-0.037-0.188-0.106c-0.043-0.067-0.078-0.162-0.107-0.282l-0.193-0.758
				h-0.006l-0.415,1.116h-0.28L253.555,237.878z"/>
		</g>
		<line style="&st12;" x1="252.417" y1="235.706" x2="257.667" y2="235.706"/>
	</g>
	<g>
		<path style="&st16;" d="M256.745,236.928c-0.27,0-0.518-0.084-0.714-0.225c-0.195,0.141-0.443,0.225-0.713,0.225
			c-0.287,0-0.549-0.095-0.75-0.252v1.721c0,0.438,0.287,0.942,0.705,1.183c0.419,0.239,0.758,0.438,0.758,0.438
			s0.34-0.198,0.759-0.438c0.418-0.24,0.705-0.745,0.705-1.183v-1.721C257.294,236.833,257.032,236.928,256.745,236.928z"/>
		<line style="&st8;" x1="254.709" y1="237.226" x2="257.334" y2="237.226"/>
		<g>
			<line style="&st1;" x1="255.11" y1="237.976" x2="255.625" y2="239.065"/>
			<line style="&st1;" x1="255.031" y1="239.077" x2="255.338" y2="238.458"/>
		</g>
	</g>
	<path style="&st15;" d="M256.873,237.837c-0.135,0-0.259-0.042-0.357-0.112c-0.098,0.07-0.222,0.112-0.356,0.112
		c-0.144,0-0.274-0.048-0.375-0.126v0.86c0,0.219,0.144,0.471,0.353,0.591c0.21,0.12,0.379,0.219,0.379,0.219s0.17-0.099,0.38-0.219
		c0.209-0.12,0.353-0.372,0.353-0.591v-0.86C257.147,237.789,257.017,237.837,256.873,237.837z"/>
	<path style="&st4;" d="M256.937,238.291c-0.067,0-0.129-0.021-0.179-0.056c-0.049,0.035-0.11,0.056-0.178,0.056
		c-0.072,0-0.138-0.023-0.188-0.062v0.43c0,0.109,0.071,0.235,0.176,0.296c0.105,0.06,0.189,0.109,0.189,0.109
		s0.085-0.05,0.19-0.109c0.104-0.061,0.176-0.187,0.176-0.296v-0.43C257.074,238.268,257.009,238.291,256.937,238.291z"/>
	<line style="&st6;" x1="255.854" y1="237.985" x2="257.167" y2="237.985"/>
	<g>
		<line style="&st6;" x1="256.056" y1="238.36" x2="256.312" y2="238.905"/>
		<line style="&st6;" x1="256.016" y1="238.911" x2="256.169" y2="238.602"/>
	</g>
	<rect style="&st9;" width="390" height="390"/>
</g>
</svg>
